HIERARCHY
ROOT Hips
{
  OFFSET -102.467 93.6631 130.069
  CHANNELS 6 Xposition Yposition Zposition Zrotation Xrotation Yrotation
  JOINT LeftUpLeg
  {
    OFFSET 8.64259 1.95398 -2.38835
    CHANNELS 3 Zrotation Xrotation Yrotation
    JOINT LeftLeg
    {
      OFFSET 43.7702 0 0
      CHANNELS 3 Zrotation Xrotation Yrotation
      JOINT LeftFoot
      {
        OFFSET 40.6238 0 0
        CHANNELS 3 Zrotation Xrotation Yrotation
        JOINT LeftToeBase
        {
          OFFSET 12.7242 0 0
          CHANNELS 3 Zrotation Xrotation Yrotation
          End Site
          {
            OFFSET 0 0 0
          }
        }
      }
    }
  }
  JOINT RightUpLeg
  {
    OFFSET -8.2249 1.95398 -2.59336
    CHANNELS 3 Zrotation Xrotation Yrotation
    JOINT RightLeg
    {
      OFFSET 43.5653 0 0
      CHANNELS 3 Zrotation Xrotation Yrotation
      JOINT RightFoot
      {
        OFFSET 40.6238 0 0
        CHANNELS 3 Zrotation Xrotation Yrotation
        JOINT RightToeBase
        {
          OFFSET 12.7242 0 0
          CHANNELS 3 Zrotation Xrotation Yrotation
          End Site
          {
            OFFSET 0 0 0
          }
        }
      }
    }
  }
  JOINT Spine
  {
    OFFSET 0.165834 0.87714 6.61349
    CHANNELS 3 Zrotation Xrotation Yrotation
    JOINT Spine1
    {
      OFFSET 7.38963 1.71661e-005 0
      CHANNELS 3 Zrotation Xrotation Yrotation
      JOINT Spine2
      {
        OFFSET 11.9445 1.14441e-005 0
        CHANNELS 3 Zrotation Xrotation Yrotation
        JOINT Spine3
        {
          OFFSET 14.7254 4.19617e-005 0
          CHANNELS 3 Zrotation Xrotation Yrotation
          JOINT Spine4
          {
            OFFSET 10.9679 0 0
            CHANNELS 3 Zrotation Xrotation Yrotation
            JOINT RightShoulder
            {
              OFFSET 2.46616 -1.6653 3.69651
              CHANNELS 3 Zrotation Xrotation Yrotation
              JOINT RightArm
              {
                OFFSET 13.0012 0 0
                CHANNELS 3 Zrotation Xrotation Yrotation
                JOINT RightForeArm
                {
                  OFFSET 28.7848 1.52588e-005 0
                  CHANNELS 3 Zrotation Xrotation Yrotation
                  JOINT RightHand
                  {
                    OFFSET 26.5688 1.52588e-005 0
                    CHANNELS 3 Zrotation Xrotation Yrotation
                    End Site
                    {
                      OFFSET 0 0 0
                    }
                  }
                }
              }
            }
            JOINT LeftShoulder
            {
              OFFSET 2.38034 -1.29275 -3.7523
              CHANNELS 3 Zrotation Xrotation Yrotation
              JOINT LeftArm
              {
                OFFSET 16.3182 6.10351e-005 0
                CHANNELS 3 Zrotation Xrotation Yrotation
                JOINT LeftForeArm
                {
                  OFFSET 27.0901 0 0
                  CHANNELS 3 Zrotation Xrotation Yrotation
                  JOINT LeftHand
                  {
                    OFFSET 24.5451 1.52588e-005 0
                    CHANNELS 3 Zrotation Xrotation Yrotation
                    End Site
                    {
                      OFFSET 0 0 0
                    }
                  }
                }
              }
            }
            JOINT Neck
            {
              OFFSET 5.0226 -0.0266342 0
              CHANNELS 3 Zrotation Xrotation Yrotation
              JOINT Head
              {
                OFFSET 6.69363 2.86102e-005 0
                CHANNELS 3 Zrotation Xrotation Yrotation
                End Site
                {
                  OFFSET 0 0 0
                }
              }
            }
          }
        }
      }
    }
  }
}
MOTION
Frames:	13
Frame Time:	0.0416667
-7.39716 83.3205 -8.1193 23.5523 -77.1299 24.5492 -175.52 54.2414 87.4157 -66.5775 6.85471 0.753366 73.7264 13.5596 6.40112 43.6145 -1.33709 2.0354 162.231 55.0525 89.2896 -64.8012 -19.8601 5.98522 70.4113 -12.9469 -8.42958 42.5532 -2.17791 3.96365 0.390527 13.7791 -90.7852 -0.683673 0.493354 -1.49667 -12.3554 0.427027 -1.51692 -34.886 0.920322 -1.27925 -14.8734 0.920328 -1.27926 96.9849 -19.362 -94.9713 5.05517 7.42609 -74.6333 7.49873 35.0945 -9.83256 -6.26139 0.147709 -8.64131 -94.7548 -32.2751 65.1272 -7.63596 -8.39853 -79.7187 0.415764 -24.8593 -0.127069 -6.52961 0.264439 -14.1318 17.1628 -2.13159 15.6321 2.77157 -7.28811 -12.1512 
-7.4543 85.0853 -7.46076 21.6574 -77.2501 22.9779 -175.809 51.7261 88.4644 -62.8218 7.03423 0.643975 73.3556 12.5902 5.51307 42.0296 -1.15955 2.12034 164.024 52.1982 88.9309 -60.5473 -18.8066 6.15365 69.7289 -12.1563 -8.18552 41.9651 -2.19331 3.45963 0.360246 13.2039 -90.7293 0.466487 0.44679 -1.39992 -11.2051 0.384747 -1.41823 -33.7362 0.846837 -1.20096 -13.7236 0.846839 -1.20097 96.3045 -22.7785 -95.7549 5.58851 3.53618 -70.0976 9.70077 31.8672 -15.2294 -6.81807 0.161924 -8.5714 -95.2088 -35.8091 65.7955 -7.48231 -5.27042 -74.4533 -1.94382 -22.1763 -3.15314 -7.03349 0.320958 -14.4979 20.8533 -1.27575 16.579 1.34378 -7.13298 -12.8839 
-7.33657 86.8812 -6.71067 25.1023 -77.1666 26.9023 -176.726 48.8059 89.2751 -58.7215 7.49291 0.780704 72.5691 11.6662 5.09592 40.6404 -1.1088 1.61391 165.663 48.8543 88.2179 -56.4597 -16.5224 6.19701 69.5013 -10.672 -6.4087 41.2132 -2.44252 2.00112 0.283971 12.6214 -90.7512 1.6305 0.279248 -1.45631 -10.0413 0.214899 -1.46719 -32.5711 0.703991 -1.3051 -12.5585 0.70399 -1.3051 95.9915 -26.6551 -95.5687 6.45936 -0.617855 -65.3005 10.0269 26.3533 -19.9504 -5.61398 0.164699 -9.56043 -95.0313 -38.212 67.0444 -7.73461 -1.92211 -68.7443 -4.45096 -18.9591 -8.71854 -6.56419 0.267117 -14.1162 24.6809 -0.845833 15.2321 -0.846451 -6.52662 -12.133 
-7.29263 88.6862 -5.76529 31.0149 -78.054 33.2287 -177.96 44.4453 90.1259 -54.4705 7.99086 1.28801 71.6881 10.7712 4.94413 39.7956 -1.06393 1.35182 166.988 44.1775 87.6302 -52.1071 -14.7738 6.23666 68.8026 -9.39102 -5.40612 40.237 -2.1723 2.17821 0.179221 12.1324 -90.7632 2.60697 0.0593855 -1.48964 -9.06484 -0.00623559 -1.49083 -31.5937 0.50429 -1.40297 -11.5811 0.504291 -1.40296 95.3092 -31.3079 -95.9685 6.30715 -4.17461 -59.0539 10.3994 22.3336 -25.8599 -4.6711 0.137137 -9.74216 -94.6657 -40.7267 68.5669 -7.18252 1.66393 -62.6835 -7.94846 -19.9213 -14.42 -5.78418 0.190464 -13.7831 26.8542 -0.848441 13.1852 -2.38694 -5.86459 -10.3473 
-7.27664 90.342 -4.64875 34.7741 -79.2588 37.2531 -178.451 40.0918 90.6816 -50.475 7.44437 1.73647 71.064 9.59346 3.82795 38.7959 -0.922684 1.57829 168.575 39.4634 87.4993 -47.607 -13.8847 5.85521 67.6602 -8.60501 -5.60804 39.7635 -2.26906 1.41622 0.15139 11.6273 -90.7836 3.61664 -0.0107831 -1.53406 -8.05521 -0.0782833 -1.5321 -30.5836 0.450712 -1.46641 -10.5709 0.45071 -1.46641 95.2006 -35.0637 -95.4181 7.49506 -7.55295 -53.0969 10.8049 20.6937 -30.9983 -3.42458 0.0959058 -10.123 -94.3005 -43.6234 70.1334 -7.51153 4.9154 -56.9727 -10.6584 -19.8844 -20.0123 -5.63697 0.183442 -13.9641 29.2301 -0.0312292 12.9827 -5.00685 -5.05401 -9.91777 
-7.37568 91.7736 -3.44968 35.5356 -80.1962 36.8288 -177.893 35.9678 89.8387 -45.9189 7.57316 1.43877 69.901 8.78512 3.95102 38.3237 -0.96957 0.95499 170.362 36.2075 86.3613 -44.4084 -12.7276 4.85741 67.4165 -7.80794 -4.79452 39.4145 -2.21641 1.30808 0.089923 11.0315 -90.6014 4.80926 -0.0669009 -1.18026 -6.86221 -0.11878 -1.17618 -29.3933 0.290883 -1.14581 -9.38063 0.290882 -1.14582 95.402 -39.1278 -94.3203 8.69893 -10.0186 -47.2595 9.59212 18.0503 -34.7567 0.964069 -0.128953 -11.6171 -93.8008 -45.2222 71.4198 -8.48973 8.31475 -50.998 -13.3455 -20.1771 -25.743 -4.41993 0.0824429 -14.0646 29.2278 0.292016 13.2919 -6.63792 -4.7223 -10.2053 
-7.2291 93.1513 -2.18057 42.8473 -82.3225 44.1025 -177.987 30.5017 89.9712 -41.9187 6.67587 1.90069 69.5847 8.03729 3.15324 37.4465 -0.867117 0.988648 171.614 30.8914 86.1695 -40.7164 -11.1078 3.98166 67.488 -6.72415 -2.95829 37.3596 -1.80079 1.05531 0.107617 10.6255 -90.5268 5.62161 -0.00481027 -1.03459 -6.04976 -0.0503343 -1.03338 -28.5818 0.306328 -0.988213 -8.56916 0.306332 -0.988218 96.1302 -41.0447 -92.7289 11.962 -12.9791 -41.7701 10.6063 17.9665 -39.1995 0.561484 -0.0954105 -11.0035 -93.3673 -46.2374 72.3948 -8.69901 11.4592 -45.3294 -15.4782 -19.6713 -31.0434 -2.97415 -0.0413444 -13.404 28.3042 0.132685 12.1757 -6.51721 -4.37805 -8.82341 
-7.15946 94.3313 -0.818537 54.9121 -84.252 56.3009 -177.975 25.1873 90.2188 -38.1622 5.39501 2.43723 69.5759 7.23297 1.76103 36.3887 -0.737277 1.10696 172.392 25.4644 86.3385 -36.8316 -9.73244 3.2663 67.7224 -6.00919 -1.48342 35.4383 -1.44541 0.649349 0.123235 10.2543 -90.4818 6.36455 0.0421147 -0.94959 -5.30675 0.000282429 -0.950539 -27.8394 0.325547 -0.893043 -7.82672 0.325544 -0.893053 96.3986 -43.1075 -91.9867 13.4736 -15.1634 -36.3227 10.1835 16.6369 -42.9282 -0.167884 -0.0531601 -11.5846 -92.9582 -47.3811 73.3477 -9.10415 13.7729 -40.375 -16.4045 -18.5108 -35.1168 -3.86233 0.0227503 -13.0656 29.0153 0.15862 11.0806 -8.78602 -3.89005 -7.41582 
-7.26732 95.2497 0.448669 60.7067 -84.9152 61.7762 -177.836 21.5642 90.1035 -34.4182 5.1416 2.61054 68.8517 6.67841 1.50002 36.1296 -0.78603 0.526911 173.281 22.2329 86.3096 -33.969 -7.87973 2.38645 67.8477 -4.94176 0.244344 34.2197 -1.02986 1.2494 0.0503541 9.73076 -90.3921 7.41144 -0.0690766 -0.769953 -4.25972 -0.10289 -0.766161 -26.7931 0.165511 -0.755128 -6.78045 0.16551 -0.755122 97.0031 -44.4444 -90.806 14.785 -17.485 -31.7107 8.88221 15.0431 -46.3536 1.41642 -0.137122 -11.2305 -91.889 -48.2461 75.2065 -9.73372 16.2727 -35.8774 -17.9283 -18.6837 -39.0086 -2.95553 -0.0447912 -13.3083 29.238 0.367117 10.1426 -11.8445 -3.21499 -6.64429 
-7.1231 95.9679 1.50062 72.4927 -85.7931 73.7084 -178.025 18.0491 90.0948 -31.4497 4.39904 3.12946 68.3139 6.24565 1.27302 35.8882 -0.754823 0.556355 173.719 18.8716 86.4479 -31.2174 -7.76647 1.92094 67.3175 -4.04433 0.984167 33.6338 -0.982446 0.83674 -0.0122767 9.23763 -90.3562 8.39752 -0.181559 -0.692701 -3.27359 -0.211864 -0.684048 -25.8073 0.0350109 -0.71525 -5.79461 0.0350176 -0.715241 97.1044 -45.9968 -90.4679 15.247 -19.8305 -27.0687 9.6549 15.2716 -50.1516 1.20361 -0.115046 -10.6807 -90.7075 -49.7148 77.3459 -10.2327 18.338 -31.1589 -19.9947 -18.9612 -43.5235 -3.06945 -0.0374762 -13.083 25.6081 0.314019 8.81468 -11.6609 -2.5393 -5.39589 
-7.21861 96.5397 2.49633 85.2367 -86.6467 86.3973 -177.799 14.9915 90.1617 -28.8526 4.12524 3.32342 68.0516 5.84725 0.845309 35.3402 -0.59029 1.40237 174.229 15.8416 86.6943 -28.4971 -7.46419 1.34709 67.0923 -3.678 1.27841 32.9594 -0.768806 1.12161 0.011722 8.75481 -90.3114 9.36356 -0.116485 -0.608617 -2.30753 -0.14316 -0.602906 -24.8415 0.0718105 -0.615491 -4.82889 0.0718122 -0.615489 97.548 -47.4982 -89.5993 15.5211 -22.0568 -22.5509 9.60081 14.915 -54.1822 1.08659 -0.102919 -10.1492 -90.0116 -50.4788 78.5542 -11.6996 19.6151 -26.7615 -21.2133 -18.8612 -47.205 -3.7022 0.000982261 -12.235 20.802 -0.247893 8.13774 -11.1566 -2.47237 -6.09112 
-7.19848 97.1794 3.59062 102.616 -87.3351 103.577 -177.514 11.5675 89.9641 -25.3157 4.18918 3.48824 66.8893 5.21431 1.52612 35.58 -0.712416 0.616616 174.437 12.6369 86.6436 -25.1723 -8.01262 0.927598 66.644 -3.51012 1.09377 32.2603 -0.666464 0.824708 0.03788 8.28511 -90.249 10.3033 -0.0383893 -0.491293 -1.36774 -0.0599663 -0.48913 -23.9022 0.111037 -0.480116 -3.88953 0.111037 -0.480122 97.6714 -49.3098 -89.2377 16.0476 -23.4097 -18.003 9.68637 14.6427 -57.9162 1.04254 -0.104024 -10.3594 -88.9846 -51.0678 80.2011 -13.8453 20.4858 -22.7845 -22.0249 -18.5983 -49.9976 -4.22814 0.0178771 -11.0551 16.8319 -0.42645 6.67678 -12.1616 -1.9193 -5.68812 
-7.28199 97.7959 4.56037 123.073 -87.5741 123.803 -176.733 7.9712 90.1019 -21.0587 4.43936 3.27678 66.3689 4.48341 0.825254 33.7785 -0.521425 0.541207 174.709 9.45875 86.5472 -21.507 -7.57259 0.410707 66.1821 -2.43349 2.26598 30.6989 -0.215962 1.32 0.0815652 7.89539 -90.2094 11.083 0.0652651 -0.423027 -0.587976 0.0465922 -0.425487 -23.1227 0.189388 -0.383856 -3.11002 0.18939 -0.383843 97.9928 -51.1011 -88.5885 16.8215 -24.1459 -13.6426 8.79272 13.7847 -61.8171 0.53151 -0.0734607 -9.31875 -88.3411 -52.3478 81.3869 -15.4412 20.4007 -19.2611 -22.4853 -18.266 -52.2834 -4.21678 0.0282712 -11.7147 13.7278 -0.726054 5.07794 -13.4126 -1.61645 -4.91445 
